Coordinates
version=1
nRows=7
nColumns=63
inDegrees=yes

Units are S.I. units (second, meters, Newtons, ...)
If the header above contains a line with 'inDegrees', this indicates whether rotational values are in degrees (yes) or radians (no).

endheader
time	pelvis_tilt	pelvis_list	pelvis_rotation	pelvis_tx	pelvis_ty	pelvis_tz	hip_flexion_r	hip_adduction_r	hip_rotation_r	knee_angle_r	knee_angle_r_beta	ankle_angle_r	subtalar_angle_r	mtp_angle_r	hip_flexion_l	hip_adduction_l	hip_rotation_l	knee_angle_l	knee_angle_l_beta	ankle_angle_l	subtalar_angle_l	mtp_angle_l	L5_S1_Flex_Ext	L5_S1_Lat_Bending	L5_S1_axial_rotation	L4_L5_Flex_Ext	L4_L5_Lat_Bending	L4_L5_axial_rotation	L3_L4_Flex_Ext	L3_L4_Lat_Bending	L3_L4_axial_rotation	L2_L3_Flex_Ext	L2_L3_Lat_Bending	L2_L3_axial_rotation	L1_L2_Flex_Ext	L1_L2_Lat_Bending	L1_L2_axial_rotation	L1_T12_Flex_Ext	L1_T12_Lat_Bending	L1_T12_axial_rotation	Abs_r3	Abs_r2	Abs_r1	Abs_t1	Abs_t2	neck_flexion	neck_bending	neck_rotation	arm_flex_r	arm_add_r	arm_rot_r	elbow_flex_r	pro_sup_r	wrist_flex_r	wrist_dev_r	arm_flex_l	arm_add_l	arm_rot_l	elbow_flex_l	pro_sup_l	wrist_flex_l	wrist_dev_l
      0.00000000	     -2.49998295	     -4.04390813	     81.71994209	      0.20168498	      0.89629714	      0.65505592	      3.18637378	     -2.93408227	     -0.85972966	      7.74353499	      0.13515018	     24.53790289	     12.52629965	      0.00000000	      2.77753394	      2.76205847	      5.49162437	      8.74377911	      0.15260773	     17.36437470	    -16.33101153	      0.00000000	      0.02293741	     -0.10988046	      1.22928116	      0.04259706	     -0.14614101	      1.30611123	      0.03768386	     -0.26716335	      1.30611123	      0.02621516	     -0.26716335	      1.07562102	      0.02129967	     -0.22406823	      0.99879094	      0.01310643	     -0.17020483	      0.92196087	      0.16383959	     -1.24298972	      6.83689303	      0.00000000	      0.00000000	     18.75766483	      0.78066311	     -0.94131037	     22.77094447	    -11.62080965	     57.99699865	     60.03308569	     67.17011131	      6.38792470	      9.56299368	     28.36734506	    -11.14877305	     62.05943127	     52.94729910	     88.50981469	     31.89471570	     33.27557393
      0.01666667	     -2.45250215	     -4.09736843	     81.58448992	      0.20155774	      0.89579038	      0.65469788	      3.31080502	     -3.03416200	     -3.09413175	      8.03961404	      0.14031774	     25.33425251	     14.68024522	      0.00000000	      2.71993668	      2.74827676	      5.60495638	      8.60776389	      0.15023382	     17.00588851	    -16.58189781	      0.00000000	      0.01034630	     -0.09168150	      1.16503309	      0.01921411	     -0.12193640	      1.23784765	      0.01699793	     -0.22291441	      1.23784765	      0.01182478	     -0.22291441	      1.01940395	      0.00960757	     -0.18695692	      0.94658938	      0.00591187	     -0.14201465	      0.87377481	      0.07390257	     -1.03711950	      6.47956452	      0.00000000	      0.00000000	     19.06239975	      1.25000379	      0.63911799	     23.27992847	    -11.52548026	     58.55958449	     59.99750348	     68.27851540	      6.97479718	      9.94284714	     27.17132818	    -11.88869156	     60.60251320	     54.51038544	     88.05283416	     28.05534455	     33.25172860
      0.03333333	     -2.46105532	     -4.09701844	     81.46728538	      0.20161799	      0.89547204	      0.65455573	      3.38640684	     -3.14864098	     -4.54623259	      8.26906528	      0.14432242	     25.87368245	     16.07910955	      0.00000000	      2.65547059	      2.77204570	      5.58225965	      8.52208893	      0.14873851	     16.83583778	    -16.69411666	      0.00000000	     -0.00363937	     -0.09005270	      1.13900160	     -0.00675868	     -0.11977009	      1.21018920	     -0.00597913	     -0.21895413	      1.21018920	     -0.00415944	     -0.21895413	      0.99662640	     -0.00337952	     -0.18363546	      0.92543880	     -0.00207954	     -0.13949163	      0.85425120	     -0.02599568	     -1.01869411	      6.33478519	      0.00000000	      0.00000000	     19.26580455	      1.55536475	      1.33334018	     23.56471852	    -11.50676586	     59.00708147	     60.12537621	     68.31189462	      6.83419950	     10.03993270	     26.61659703	    -12.36515631	     60.11392673	     55.44350099	     87.49336395	     25.92946315	     33.19810481
      0.05000000	     -2.47340389	     -4.12559262	     81.16540196	      0.20199339	      0.89524380	      0.65430371	      3.48416478	     -3.19807828	     -5.00648644	      8.38301502	      0.14631121	     26.15444771	     16.70149885	      0.00000000	      2.55785083	      2.76956993	      5.13614266	      8.32448110	      0.14528960	     16.82281391	    -16.55507488	      0.00000000	     -0.00027980	     -0.09035805	      1.18429070	     -0.00051962	     -0.12017620	      1.25830887	     -0.00045968	     -0.21969656	      1.25830887	     -0.00031978	     -0.21969656	      1.03625436	     -0.00025982	     -0.18425813	      0.96223619	     -0.00015988	     -0.13996462	      0.88821802	     -0.00199859	     -1.02214830	      6.58666958	      0.00000000	      0.00000000	     19.28533797	      1.69034249	      1.57454596	     23.44406576	    -11.58882059	     59.04080155	     60.41612113	     67.62900952	      6.38304198	     10.09202879	     26.30098056	    -12.59914680	     60.08539553	     55.95639622	     86.56371160	     24.32104794	     33.31211882
      0.06666667	     -2.39903934	     -4.14491799	     81.52362478	      0.20156587	      0.89510905	      0.65454242	      3.47144233	     -3.14451922	     -5.53381195	      8.41157519	      0.14680968	     26.23831712	     16.71704164	      0.00000000	      2.67825128	      2.68281937	      5.12478436	      8.50013791	      0.14835539	     17.13087266	    -16.12687801	      0.00000000	     -0.00880606	     -0.08716708	      1.11846786	     -0.01635373	     -0.11593222	      1.18837210	     -0.01446747	     -0.21193804	      1.18837210	     -0.01006444	     -0.21193804	      0.97865938	     -0.00817730	     -0.17775111	      0.90875514	     -0.00503178	     -0.13502181	      0.83885090	     -0.06290078	     -0.98605143	      6.22058271	      0.00000000	      0.00000000	     19.47896446	      1.86625159	      1.58605284	     23.50704890	    -11.75400472	     59.54583736	     60.67466258	     66.40597390	      5.46937338	      9.55120290	     26.48539479	    -12.59143952	     60.27843223	     55.91595293	     86.98111528	     25.51046189	     33.15592859
      0.08333333	     -2.34371495	     -4.16282628	     81.74321546	      0.20128137	      0.89504364	      0.65469760	      3.44622934	     -3.09644887	     -5.79742234	      8.34604826	      0.14566602	     26.21390154	     16.72266481	      0.00000000	      2.74072347	      2.61668388	      5.02354591	      8.56723671	      0.14952649	     17.39116870	    -15.86383604	      0.00000000	     -0.01190164	     -0.08436249	      1.10389816	     -0.02210253	     -0.11220211	      1.17289179	     -0.01955320	     -0.20511896	      1.17289179	     -0.01360238	     -0.20511896	      0.96591089	     -0.01105186	     -0.17203199	      0.89691725	     -0.00680059	     -0.13067750	      0.82792362	     -0.08501219	     -0.95432535	      6.13955038	      0.00000000	      0.00000000	     19.57373353	      1.90550574	      1.41693140	     23.37539206	    -12.01037029	     59.87441689	     61.05750851	     64.77289130	      4.31768905	      9.37107527	     26.72257598	    -12.42284411	     60.65797359	     55.63591950	     87.06777406	     26.39836965	     33.09568213
      0.10000000	     -2.30351074	     -4.19850306	     81.83417465	      0.20122297	      0.89502564	      0.65482380	      3.50856738	     -3.05803395	     -5.78391045	      8.39132764	      0.14645630	     26.15388639	     16.71707977	      0.00000000	      2.79315971	      2.54285355	      4.68640626	      8.59003273	      0.14992435	     17.69798108	    -15.29318216	      0.00000000	     -0.01247454	     -0.08280054	      1.11428453	     -0.02316647	     -0.11012472	      1.18392731	     -0.02049443	     -0.20132124	      1.18392731	     -0.01425715	     -0.20132124	      0.97499896	     -0.01158386	     -0.16884686	      0.90535618	     -0.00712795	     -0.12825804	      0.83571340	     -0.08910441	     -0.93665628	      6.19731626	      0.00000000	      0.00000000	     19.72387505	      1.91389488	      1.19741525	     23.11533180	    -12.19985600	     60.04474908	     61.26980268	     63.41620625	      3.39780369	      9.43570702	     26.67714373	    -12.15512647	     60.51587198	     55.27114063	     87.53499621	     26.86110666	     33.09790418
